<?xml version="1.0" standalone="no"?>
<!DOCTYPE svg PUBLIC "-//W3C//DTD SVG 20010904//EN"
 "http://www.w3.org/TR/2001/REC-SVG-20010904/DTD/svg10.dtd">
<svg version="1.0" xmlns="http://www.w3.org/2000/svg"
 width="96.000000pt" height="96.000000pt" viewBox="0 0 96.000000 96.000000"
 preserveAspectRatio="xMidYMid meet">

<g transform="translate(0.000000,96.000000) scale(0.100000,-0.100000)"
fill="currentColor" stroke="none">
<path d="M203 830 c-94 -47 -142 -123 -142 -225 -1 -87 30 -133 200 -300 85
-83 168 -163 186 -179 l32 -29 187 179 c104 100 195 197 207 219 30 56 30 164
0 220 -25 47 -74 96 -123 121 -52 27 -171 26 -228 -2 l-42 -21 -43 21 c-26 12
-67 22 -107 24 -57 3 -73 0 -127 -28z m230 -40 l49 -24 40 23 c24 14 65 25 99
28 149 14 264 -119 228 -263 -11 -43 -28 -65 -138 -178 -69 -70 -151 -150
-181 -176 l-55 -48 -175 172 c-186 181 -200 202 -200 292 0 77 62 161 142 191
49 19 135 11 191 -17z"/>
<path d="M420 575 c-23 -51 -39 -98 -36 -104 4 -6 37 -11 73 -11 75 0 73 5 29
-93 -23 -50 -24 -58 -10 -64 8 -3 19 -2 24 3 16 18 80 176 75 185 -4 5 -37 9
-75 9 l-70 0 26 58 c35 75 39 98 21 105 -11 4 -26 -19 -57 -88z"/>
</g>
</svg>
