<?xml version="1.0" standalone="no"?>
<!DOCTYPE svg PUBLIC "-//W3C//DTD SVG 20010904//EN"
 "http://www.w3.org/TR/2001/REC-SVG-20010904/DTD/svg10.dtd">
<svg version="1.0" xmlns="http://www.w3.org/2000/svg"
 width="96.000000pt" height="96.000000pt" viewBox="0 0 96.000000 96.000000"
 preserveAspectRatio="xMidYMid meet">

<g transform="translate(0.000000,96.000000) scale(0.100000,-0.100000)"
fill="currentColor" stroke="none">
<path d="M75 753 c-5 -49 -8 -117 -7 -153 2 -36 5 -176 8 -312 l5 -248 399 0
399 0 5 248 c3 136 6 276 7 312 1 36 -2 104 -6 153 l-8 87 -397 0 -397 0 -8
-87z m765 27 l0 -30 -360 0 -360 0 0 30 0 30 360 0 360 0 0 -30z m-650 -160
c0 -89 0 -90 -27 -96 -54 -14 -72 26 -58 134 l6 52 40 0 39 0 0 -90z m138 3
c-3 -86 -4 -88 -31 -97 -50 -18 -62 -1 -65 98 l-3 86 51 0 51 0 -3 -87z m130
1 c-3 -99 -15 -116 -65 -98 -27 9 -28 12 -31 83 -2 41 -1 80 2 88 3 8 22 13
51 13 l46 0 -3 -86z m137 -4 c0 -84 0 -85 -28 -94 -50 -18 -62 -1 -65 98 l-3
87 48 -3 48 -3 0 -85z m133 4 c-3 -99 -15 -116 -65 -98 -27 9 -28 11 -31 97
l-3 87 51 0 51 0 -3 -86z m127 34 c14 -108 -4 -148 -58 -134 -27 6 -27 7 -27
96 l0 90 39 0 40 0 6 -52z m-163 -173 c42 8 74 8 116 0 l32 -7 0 -199 0 -199
-25 0 -25 0 0 170 0 170 -105 0 -105 0 0 -170 0 -170 -230 0 -230 0 0 199 0
199 32 7 c18 3 45 6 61 6 25 -1 64 -2 132 -2 68 0 107 1 133 2 15 0 41 -2 57
-6 17 -3 40 0 55 8 21 11 28 11 47 -1 15 -9 34 -12 55 -7z m58 -255 l0 -150
-70 0 -70 0 0 150 0 150 70 0 70 0 0 -150z"/>
<path d="M172 278 l3 -143 170 0 170 0 3 143 3 142 -176 0 -176 0 3 -142z
m308 -3 l0 -105 -135 0 -135 0 0 105 0 105 135 0 135 0 0 -105z"/>
</g>
</svg>
