<?xml version="1.0" standalone="no"?>
<!DOCTYPE svg PUBLIC "-//W3C//DTD SVG 20010904//EN"
 "http://www.w3.org/TR/2001/REC-SVG-20010904/DTD/svg10.dtd">
<svg version="1.0" xmlns="http://www.w3.org/2000/svg"
 width="96.000000pt" height="96.000000pt" viewBox="0 0 96.000000 96.000000"
 preserveAspectRatio="xMidYMid meet">

<g transform="translate(0.000000,96.000000) scale(0.100000,-0.100000)"
fill="currentColor" stroke="none">
<path d="M212 868 c-16 -16 -17 -297 0 -333 7 -15 25 -33 40 -41 26 -13 28
-19 28 -75 0 -33 6 -72 14 -88 14 -27 53 -51 81 -51 19 0 19 -8 0 -81 -9 -33
-13 -64 -10 -69 8 -13 342 -13 350 0 3 5 -1 36 -10 69 -20 79 -20 79 22 96 50
21 72 42 94 90 22 47 26 184 7 203 -8 8 -67 12 -200 12 l-188 0 0 128 c0 86
-4 132 -12 140 -16 16 -200 16 -216 0z m188 -48 c0 -18 -7 -20 -80 -20 -73 0
-80 2 -80 20 0 18 7 20 80 20 73 0 80 -2 80 -20z m0 -180 l0 -120 -60 0 c-90
0 -100 14 -100 140 l0 100 80 0 80 0 0 -120z m400 -100 c0 -19 -7 -20 -180
-20 -173 0 -180 1 -180 20 0 19 7 20 180 20 173 0 180 -1 180 -20z m0 -87 c0
-58 -72 -133 -127 -133 -32 0 -35 -13 -18 -79 8 -32 15 -64 15 -70 0 -7 -42
-11 -130 -11 -88 0 -130 4 -130 11 0 6 7 38 15 70 9 33 13 64 10 69 -3 6 -22
10 -41 10 -53 0 -74 28 -74 100 l0 60 240 0 240 0 0 -27z"/>
</g>
</svg>
