<?xml version="1.0" standalone="no"?>
<!DOCTYPE svg PUBLIC "-//W3C//DTD SVG 20010904//EN"
 "http://www.w3.org/TR/2001/REC-SVG-20010904/DTD/svg10.dtd">
<svg version="1.0" xmlns="http://www.w3.org/2000/svg"
 width="96.000000pt" height="96.000000pt" viewBox="0 0 96.000000 96.000000"
 preserveAspectRatio="xMidYMid meet">

<g transform="translate(0.000000,96.000000) scale(0.100000,-0.100000)"
fill="currentColor" stroke="none">
<path d="M454 926 c-19 -19 -34 -43 -34 -55 0 -18 -5 -20 -44 -19 -39 2 -60
-7 -178 -78 -101 -62 -137 -89 -150 -115 -16 -30 -18 -67 -18 -312 0 -283 3
-306 39 -334 26 -20 70 -15 96 12 l25 24 0 238 0 239 88 51 87 51 3 -58 c3
-57 3 -58 76 -129 41 -39 83 -71 93 -71 26 0 63 41 63 69 0 13 -20 44 -49 74
l-49 52 -4 88 -4 87 37 0 c107 0 147 145 55 201 -49 30 -92 25 -132 -15z m128
-26 c25 -26 29 -36 24 -63 -13 -65 -85 -89 -131 -42 -39 38 -29 106 18 125 38
15 58 11 89 -20z m-180 -92 c41 -32 58 -81 58 -164 l0 -81 55 -60 c55 -61 62
-85 28 -97 -11 -4 -37 14 -79 57 l-64 64 0 71 c0 55 -3 72 -14 72 -7 0 -61
-28 -120 -62 l-106 -63 0 -241 c0 -228 -1 -242 -20 -259 -17 -15 -24 -16 -45
-7 -13 6 -27 22 -30 34 -3 13 -5 146 -3 295 4 319 -13 279 159 383 114 69 151
81 181 58z"/>
<path d="M775 730 c-4 -6 -3 -16 3 -22 6 -6 12 -6 17 2 4 6 3 16 -3 22 -6 6
-12 6 -17 -2z"/>
<path d="M727 713 c-12 -11 -8 -23 8 -23 8 0 15 7 15 15 0 16 -12 20 -23 8z"/>
<path d="M820 705 c0 -9 5 -15 11 -13 6 2 11 8 11 13 0 5 -5 11 -11 13 -6 2
-11 -4 -11 -13z"/>
<path d="M677 683 c-12 -11 -8 -23 8 -23 8 0 15 7 15 15 0 16 -12 20 -23 8z"/>
<path d="M581 614 c-12 -15 -21 -33 -21 -42 0 -8 46 -62 102 -119 l103 -104
80 3 80 3 0 140 0 140 -162 3 -161 2 -21 -26z m314 -119 l0 -110 -58 -3 -59
-3 -89 87 c-87 85 -108 124 -76 138 6 2 73 4 147 3 l135 -2 0 -110z"/>
</g>
</svg>
